<?xml version="1.0" encoding="UTF-8" standalone="no"?>
<!DOCTYPE svg PUBLIC "-//W3C//DTD SVG 1.1//EN"
 "http://www.w3.org/Graphics/SVG/1.1/DTD/svg11.dtd">
<!-- Generated by graphviz version 10.0.1 (20240210.2158)
 -->
<!-- Pages: 1 -->
<svg width="427pt" height="353pt"
 viewBox="0.00 0.00 426.90 353.13" xmlns="http://www.w3.org/2000/svg" xmlns:xlink="http://www.w3.org/1999/xlink">
<g id="graph0" class="graph" transform="scale(1 1) rotate(0) translate(4 349.13)">
<polygon fill="white" stroke="none" points="-4,4 -4,-349.13 422.9,-349.13 422.9,4 -4,4"/>
<g id="clust1" class="cluster">
<title>cluster109</title>
<path fill="none" stroke="black" d="M30.45,-114C30.45,-114 188.45,-114 188.45,-114 194.45,-114 200.45,-120 200.45,-126 200.45,-126 200.45,-223.82 200.45,-223.82 200.45,-229.82 194.45,-235.82 188.45,-235.82 188.45,-235.82 30.45,-235.82 30.45,-235.82 24.45,-235.82 18.45,-229.82 18.45,-223.82 18.45,-223.82 18.45,-126 18.45,-126 18.45,-120 24.45,-114 30.45,-114"/>
<text text-anchor="middle" x="182.33" y="-121.2" font-family="Times,serif" font-size="14.00">109</text>
</g>
<g id="clust2" class="cluster">
<title>cluster2</title>
<path fill="none" stroke="black" d="M220.45,-114C220.45,-114 398.45,-114 398.45,-114 404.45,-114 410.45,-120 410.45,-126 410.45,-126 410.45,-223.82 410.45,-223.82 410.45,-229.82 404.45,-235.82 398.45,-235.82 398.45,-235.82 220.45,-235.82 220.45,-235.82 214.45,-235.82 208.45,-229.82 208.45,-223.82 208.45,-223.82 208.45,-126 208.45,-126 208.45,-120 214.45,-114 220.45,-114"/>
<text text-anchor="middle" x="399.08" y="-121.2" font-family="Times,serif" font-size="14.00">2</text>
</g>
<g id="clust3" class="cluster">
<title>cluster111</title>
<path fill="none" stroke="black" d="M168.45,-8C168.45,-8 250.45,-8 250.45,-8 256.45,-8 262.45,-14 262.45,-20 262.45,-20 262.45,-94 262.45,-94 262.45,-100 256.45,-106 250.45,-106 250.45,-106 168.45,-106 168.45,-106 162.45,-106 156.45,-100 156.45,-94 156.45,-94 156.45,-20 156.45,-20 156.45,-14 162.45,-8 168.45,-8"/>
<text text-anchor="middle" x="244.33" y="-15.2" font-family="Times,serif" font-size="14.00">111</text>
</g>
<!-- early_rate -->
<g id="node1" class="node">
<title>early_rate</title>
<ellipse fill="none" stroke="black" cx="361.45" cy="-304.48" rx="57.45" ry="40.66"/>
<text text-anchor="middle" x="361.45" y="-315.93" font-family="Times,serif" font-size="14.00">early_rate</text>
<text text-anchor="middle" x="361.45" y="-299.43" font-family="Times,serif" font-size="14.00">~</text>
<text text-anchor="middle" x="361.45" y="-282.93" font-family="Times,serif" font-size="14.00">Exponential</text>
</g>
<!-- disasters_observed -->
<g id="node4" class="node">
<title>disasters_observed</title>
<ellipse fill="lightgrey" stroke="black" cx="109.45" cy="-187.16" rx="83.44" ry="40.66"/>
<text text-anchor="middle" x="109.45" y="-198.61" font-family="Times,serif" font-size="14.00">disasters_observed</text>
<text text-anchor="middle" x="109.45" y="-182.11" font-family="Times,serif" font-size="14.00">~</text>
<text text-anchor="middle" x="109.45" y="-165.61" font-family="Times,serif" font-size="14.00">Poisson</text>
</g>
<!-- early_rate&#45;&gt;disasters_observed -->
<g id="edge1" class="edge">
<title>early_rate&#45;&gt;disasters_observed</title>
<path fill="none" stroke="black" d="M319.66,-276.31C311.8,-271.79 303.51,-267.41 295.45,-263.82 256.81,-246.57 243.72,-251.58 204.45,-235.82 194.9,-231.98 184.99,-227.55 175.34,-222.97"/>
<polygon fill="black" stroke="black" points="176.89,-219.83 166.37,-218.62 173.84,-226.13 176.89,-219.83"/>
</g>
<!-- disasters_unobserved -->
<g id="node5" class="node">
<title>disasters_unobserved</title>
<ellipse fill="none" stroke="black" cx="309.45" cy="-187.16" rx="92.98" ry="40.66"/>
<text text-anchor="middle" x="309.45" y="-198.61" font-family="Times,serif" font-size="14.00">disasters_unobserved</text>
<text text-anchor="middle" x="309.45" y="-182.11" font-family="Times,serif" font-size="14.00">~</text>
<text text-anchor="middle" x="309.45" y="-165.61" font-family="Times,serif" font-size="14.00">Poisson</text>
</g>
<!-- early_rate&#45;&gt;disasters_unobserved -->
<g id="edge4" class="edge">
<title>early_rate&#45;&gt;disasters_unobserved</title>
<path fill="none" stroke="black" d="M344.28,-265.4C340.28,-256.53 335.97,-246.96 331.79,-237.68"/>
<polygon fill="black" stroke="black" points="335.06,-236.44 327.76,-228.76 328.68,-239.32 335.06,-236.44"/>
</g>
<!-- late_rate -->
<g id="node2" class="node">
<title>late_rate</title>
<ellipse fill="none" stroke="black" cx="57.45" cy="-304.48" rx="57.45" ry="40.66"/>
<text text-anchor="middle" x="57.45" y="-315.93" font-family="Times,serif" font-size="14.00">late_rate</text>
<text text-anchor="middle" x="57.45" y="-299.43" font-family="Times,serif" font-size="14.00">~</text>
<text text-anchor="middle" x="57.45" y="-282.93" font-family="Times,serif" font-size="14.00">Exponential</text>
</g>
<!-- late_rate&#45;&gt;disasters_observed -->
<g id="edge2" class="edge">
<title>late_rate&#45;&gt;disasters_observed</title>
<path fill="none" stroke="black" d="M74.62,-265.4C78.62,-256.53 82.94,-246.96 87.12,-237.68"/>
<polygon fill="black" stroke="black" points="90.22,-239.32 91.14,-228.76 83.84,-236.44 90.22,-239.32"/>
</g>
<!-- late_rate&#45;&gt;disasters_unobserved -->
<g id="edge5" class="edge">
<title>late_rate&#45;&gt;disasters_unobserved</title>
<path fill="none" stroke="black" d="M99.7,-276.33C107.45,-271.86 115.58,-267.49 123.45,-263.82 157.96,-247.7 169.07,-249.93 204.45,-235.82 215.02,-231.6 226.07,-226.91 236.87,-222.16"/>
<polygon fill="black" stroke="black" points="238.02,-225.48 245.74,-218.22 235.18,-219.08 238.02,-225.48"/>
</g>
<!-- switchpoint -->
<g id="node3" class="node">
<title>switchpoint</title>
<ellipse fill="none" stroke="black" cx="209.45" cy="-304.48" rx="76.54" ry="40.66"/>
<text text-anchor="middle" x="209.45" y="-315.93" font-family="Times,serif" font-size="14.00">switchpoint</text>
<text text-anchor="middle" x="209.45" y="-299.43" font-family="Times,serif" font-size="14.00">~</text>
<text text-anchor="middle" x="209.45" y="-282.93" font-family="Times,serif" font-size="14.00">DiscreteUniform</text>
</g>
<!-- switchpoint&#45;&gt;disasters_observed -->
<g id="edge3" class="edge">
<title>switchpoint&#45;&gt;disasters_observed</title>
<path fill="none" stroke="black" d="M177.81,-266.99C168.51,-256.26 158.22,-244.4 148.52,-233.21"/>
<polygon fill="black" stroke="black" points="151.42,-231.21 142.22,-225.95 146.13,-235.8 151.42,-231.21"/>
</g>
<!-- switchpoint&#45;&gt;disasters_unobserved -->
<g id="edge6" class="edge">
<title>switchpoint&#45;&gt;disasters_unobserved</title>
<path fill="none" stroke="black" d="M241.09,-266.99C250.12,-256.58 260.08,-245.09 269.54,-234.19"/>
<polygon fill="black" stroke="black" points="272.09,-236.59 275.99,-226.74 266.8,-232 272.09,-236.59"/>
</g>
<!-- disasters -->
<g id="node6" class="node">
<title>disasters</title>
<polygon fill="none" stroke="black" points="254.58,-98 164.33,-98 164.33,-40.5 254.58,-40.5 254.58,-98"/>
<text text-anchor="middle" x="209.45" y="-80.7" font-family="Times,serif" font-size="14.00">disasters</text>
<text text-anchor="middle" x="209.45" y="-64.2" font-family="Times,serif" font-size="14.00">~</text>
<text text-anchor="middle" x="209.45" y="-47.7" font-family="Times,serif" font-size="14.00">Deterministic</text>
</g>
<!-- disasters_observed&#45;&gt;disasters -->
<g id="edge7" class="edge">
<title>disasters_observed&#45;&gt;disasters</title>
<path fill="none" stroke="black" d="M141.37,-149.17C153,-135.69 166.13,-120.46 177.74,-107"/>
<polygon fill="black" stroke="black" points="180.25,-109.46 184.13,-99.6 174.95,-104.88 180.25,-109.46"/>
</g>
<!-- disasters_unobserved&#45;&gt;disasters -->
<g id="edge8" class="edge">
<title>disasters_unobserved&#45;&gt;disasters</title>
<path fill="none" stroke="black" d="M277.26,-148.85C265.65,-135.38 252.56,-120.21 241,-106.81"/>
<polygon fill="black" stroke="black" points="243.82,-104.73 234.64,-99.44 238.52,-109.3 243.82,-104.73"/>
</g>
</g>
</svg>
